# xmcd
#
# Track frame offsets:
#	150
#	19231
#	36358
#	57161
#	73759
#	91141
#	105182
#	123435
#	139262
#	154562
#	168666
#	186080
#	202575
#
# Disc length: 2941 seconds
# Revision: 0
# Processed by: cddbd v1.5.2PL0 Copyright (c) Steve Scherf et al.
# Submitted via: dBpowerAMP V12.0
#
DISCID=a70b7b0d
DTITLE=Various Artist - Chronicle
DYEAR=2019
DGENRE=Bluegrass
TTITLE0=Gena Britt - Over and Over
TTITLE1=Gena Britt - You Don't Get Over That
TTITLE2=Gena Britt - Soldier's Lament
TTITLE3=Gena Britt feat. Alecia Newton - Get Up In Jesus' Name
TTITLE4=Gena Britt - Runaway Train
TTITLE5=Gena Britt feat. Brooke Aldridge - On And On
TTITLE6=Gena Britt - Come to Jesus
TTITLE7=Gena Britt feat. Marty Rabon - Traveling Poor Boy
TTITLE8=Gena Britt - Daddy's Shoes
TTITLE9=Gena Britt - Untold Stories
TTITLE10=Gena Britt feat. Duane Sparks - Ships That Don't Come In
TTITLE11=Gena Britt - Big Country
TTITLE12=Gena Britt feat. Robert Hale - Looking Forward to the Good Life
EXTD=
EXTT0=
EXTT1=
EXTT2=
EXTT3=
EXTT4=
EXTT5=
EXTT6=
EXTT7=
EXTT8=
EXTT9=
EXTT10=
EXTT11=
EXTT12=
PLAYORDER=
